<svg xmlns="http://www.w3.org/2000/svg" viewBox="0 0 1600 950" preserveAspectRatio="xMidYMid slice">
<defs><linearGradient id="sky" x1="0" y1="0" x2="1" y2="1"><stop stop-color="#061416"/><stop offset=".42" stop-color="#142425"/><stop offset=".68" stop-color="#1a211b"/><stop offset="1" stop-color="#071012"/></linearGradient><radialGradient id="amber"><stop stop-color="#d39448" stop-opacity=".8"/><stop offset=".4" stop-color="#9b6334" stop-opacity=".3"/><stop offset="1" stop-color="#000" stop-opacity="0"/></radialGradient><radialGradient id="teal"><stop stop-color="#3e7777" stop-opacity=".45"/><stop offset="1" stop-color="#000" stop-opacity="0"/></radialGradient><filter id="blur"><feGaussianBlur stdDeviation="28"/></filter></defs>
<rect width="1600" height="950" fill="url(#sky)"/><ellipse cx="1050" cy="240" rx="520" ry="230" fill="url(#amber)" filter="url(#blur)"/><ellipse cx="250" cy="260" rx="500" ry="280" fill="url(#teal)" filter="url(#blur)"/>
<g opacity=".23" fill="none" stroke="#d1a763"><circle cx="1170" cy="260" r="170"/><circle cx="1170" cy="260" r="130"/><circle cx="1170" cy="260" r="90"/><path d="M970 260h400M1170 60v400"/><path d="M1020 110l300 300M1320 110l-300 300"/></g>
<path d="M0 610C190 550 330 590 520 540c160-42 250-25 420 5 180 32 310-5 660-140v545H0Z" fill="#081011" opacity=".9"/><path d="M0 720c220-70 420-35 620-80 270-61 480 30 980-120v430H0Z" fill="#030708"/>
<g transform="translate(1180 210)" stroke="#c09353" fill="none" opacity=".72"><path d="M0 400L55 0l55 400M20 260h70M15 305h80M8 355h94M33 160h44M25 210h60" stroke-width="5"/><path d="M55 0v-60M35-40h40M24-20h62" stroke-width="4"/><circle cx="55" cy="-63" r="5" fill="#d1a763"/><path d="M55-60c-55 25-75 65-85 105M55-60c55 25 75 65 85 105" opacity=".65"/></g>
<g transform="translate(95 210)"><path d="M90 330c-28-62-30-138-3-201 29-69 93-111 155-94 51 14 85 68 83 123-2 63-46 116-111 142-54 21-90 49-124 90Z" fill="#10191a" stroke="#b1844a" stroke-opacity=".7" stroke-width="3"/><path d="M203 72c24-38 70-49 104-27 30 20 41 62 24 94-19 36-64 51-102 35-40-17-52-65-26-102Z" fill="#172729"/><path d="M270 68c42-24 82-21 113 9-43 0-72 10-101 28Z" fill="#b98a45" opacity=".65"/><circle cx="279" cy="67" r="6" fill="#e4c285"/><path d="M95 325c-52 7-95 23-132 53 57-13 102-10 145 4" stroke="#73562f" stroke-width="12" stroke-linecap="round"/><path d="M118 206c34 43 75 67 121 72M111 229c30 34 62 56 100 68M138 172c30 35 69 53 111 57" stroke="#7d6039" stroke-width="5" opacity=".65"/></g>
<g opacity=".18" stroke="#d1a763" fill="none"><path d="M0 150h430M0 180h360M0 210h280M1420 120h180M1370 150h230M1330 180h270"/><path d="M70 100v360M100 80v420M130 120v330"/></g>
<g opacity=".33" stroke="#d1a763" fill="none"><path d="M0 735c40-6 55-6 75 0 18 6 29 21 45 4 16-17 23-71 38-2 18 84 30-145 47 2 16 138 29-56 44-6 12 42 24-13 40 3 18 18 35-6 55 0 34 10 60-4 92 0 70 8 140-10 220 0 100 12 200-9 300 0 140 12 290-8 644 0" stroke-width="3"/></g>
</svg>